<?xml version="1.0" encoding="UTF-8" standalone="no"?><!DOCTYPE svg PUBLIC "-//W3C//DTD SVG 1.1//EN" "http://www.w3.org/Graphics/SVG/1.1/DTD/svg11.dtd"><svg width="100%" height="100%" viewBox="0 0 5625 4570" version="1.1" xmlns="http://www.w3.org/2000/svg" xmlns:xlink="http://www.w3.org/1999/xlink" xml:space="preserve" xmlns:serif="http://www.serif.com/" style="fill-rule:evenodd;clip-rule:evenodd;stroke-linejoin:round;stroke-miterlimit:2;"><rect id="Artboard3" x="0" y="0" width="5625" height="4569.45" style="fill:none;"/><path d="M2206.6,2100.91l376.737,-0l-0,376.736l326.356,0c390.825,0 637.164,286.405 637.164,698.15c-0,411.746 -246.339,698.15 -637.164,698.15l-585.363,0c-65.02,0 -117.73,-52.709 -117.73,-117.73l-0,-1655.31Zm-0,-0l-376.737,-0l0,-1278.57c0,-31.224 12.404,-61.169 34.483,-83.248c22.078,-22.079 52.024,-34.482 83.247,-34.482l585.363,-0c346.973,-0 595.958,209.764 595.958,556.737l0,839.563l-376.736,-0l-0,-837.594l-0.004,-1.969c-1.042,-158.783 -128.185,-215.32 -210.977,-215.32l-334.597,0l-0,1054.88Zm376.737,718.26l-0,713.253l293.391,0c115.607,0 293.392,-93.558 293.392,-356.627c-0,-263.069 -177.785,-356.626 -293.392,-356.626l-293.391,-0Zm-1487.42,-718.26l-376.736,-0l-0,-839.563c-0,-346.973 248.985,-556.737 595.958,-556.737l326.356,-0l-0,223.687c-0,65.021 -52.71,117.73 -117.73,117.73l-427.848,0l0,1054.88Zm272.789,332.23c330.37,0 563.775,153.503 609.753,412.296l-368.438,98.722c-30.058,-112.586 -143.589,-169.6 -276.842,-169.6c-133.253,0 -194.015,48.409 -194.015,99.325c-0,60.354 82.299,79.95 258.33,107.64c353.113,55.545 620.738,148.414 620.738,461.161c-0,312.747 -247.921,475.768 -649.526,475.768c-360.292,0 -596.893,-159.08 -641.758,-428.906l368.969,-98.865c30.854,115.484 143.08,186.354 315.78,186.354c118.997,-0 229.798,-34.64 229.798,-100.416c-0,-79.835 -90.749,-89.948 -304.223,-124.81c-326.187,-53.269 -586.618,-155.658 -586.618,-445.181c0,-289.523 248.294,-473.488 618.052,-473.488Zm2925.84,0c330.37,0 563.776,153.503 609.753,412.296l-368.438,98.722c-30.058,-112.586 -143.589,-169.6 -276.842,-169.6c-133.253,0 -194.015,48.409 -194.015,99.325c0,60.354 82.299,79.95 258.33,107.64c353.113,55.545 620.738,148.414 620.738,461.161c-0,312.747 -247.921,475.768 -649.526,475.768c-360.292,0 -596.893,-159.08 -641.757,-428.906l368.968,-98.865c30.854,115.484 143.08,186.354 315.78,186.354c118.998,-0 229.798,-34.64 229.798,-100.416c0,-79.835 -90.749,-89.948 -304.223,-124.81c-326.187,-53.269 -586.618,-155.658 -586.618,-445.181c0,-289.523 248.294,-473.488 618.052,-473.488Z" style="fill:#f67599;"/></svg>