<?xml version="1.0" encoding="UTF-8" standalone="no"?><!DOCTYPE svg PUBLIC "-//W3C//DTD SVG 1.1//EN" "http://www.w3.org/Graphics/SVG/1.1/DTD/svg11.dtd"><svg width="100%" height="100%" viewBox="0 0 5625 2325" version="1.1" xmlns="http://www.w3.org/2000/svg" xmlns:xlink="http://www.w3.org/1999/xlink" xml:space="preserve" xmlns:serif="http://www.serif.com/" style="fill-rule:evenodd;clip-rule:evenodd;stroke-linejoin:round;stroke-miterlimit:2;"><rect id="Artboard1" x="0" y="0" width="5625" height="2324.7" style="fill:none;"/><path d="M2697.6,859.285c226.274,0 386.136,105.135 417.626,282.385l-252.347,67.616c-20.587,-77.111 -98.345,-116.161 -189.612,-116.161c-91.266,0 -132.882,33.157 -132.882,68.029c-0,41.337 56.367,54.759 176.932,73.724c241.851,38.043 425.15,101.65 425.15,315.854c-0,214.203 -169.804,325.858 -444.867,325.858c-246.767,-0 -408.817,-108.955 -439.546,-293.762l252.711,-67.714c21.132,79.096 97.996,127.636 216.28,127.636c81.503,-0 157.391,-23.725 157.391,-68.776c0,-54.68 -62.155,-61.607 -208.365,-85.484c-223.409,-36.484 -401.78,-106.612 -401.78,-304.909c-0,-198.296 170.059,-324.296 423.309,-324.296Zm2003.94,0c226.274,0 386.135,105.135 417.626,282.385l-252.347,67.616c-20.587,-77.111 -98.346,-116.161 -189.612,-116.161c-91.266,0 -132.883,33.157 -132.883,68.029c0,41.337 56.368,54.759 176.933,73.724c241.851,38.043 425.149,101.65 425.149,315.854c0,214.203 -169.803,325.858 -444.866,325.858c-246.768,-0 -408.818,-108.955 -439.546,-293.762l252.71,-67.714c21.132,79.096 97.997,127.636 216.281,127.636c81.502,-0 157.391,-23.725 157.391,-68.776c-0,-54.68 -62.155,-61.607 -208.365,-85.484c-223.409,-36.484 -401.781,-106.612 -401.781,-304.909c0,-198.296 170.059,-324.296 423.31,-324.296Zm-3204.2,264.323l-0,722.499l-258.031,0l0,-875.705c0,-21.385 8.495,-41.895 23.617,-57.017c15.122,-15.122 35.632,-23.617 57.018,-23.617l400.92,-0c237.646,-0 408.178,143.669 408.178,381.315l-0,575.024l-258.031,0l0,-573.676l-0.002,-1.348c-0.714,-108.753 -87.795,-147.475 -144.5,-147.475l-229.169,-0Zm-760.718,722.499l-258.03,0l-0,-575.024c-0,-237.646 170.532,-381.315 408.177,-381.315l223.525,-0l-0,153.205c-0,44.534 -36.102,80.635 -80.635,80.635l-293.037,-0l0,722.499Zm2534.86,-1367.51l258.031,-0l-0,411.175l223.524,-0c267.681,-0 436.4,196.161 436.4,478.169c-0,282.009 -168.719,478.17 -436.4,478.17l-400.92,0c-44.534,0 -80.635,-36.101 -80.635,-80.634l0,-1286.88Zm258.031,645.087l-0,488.515l200.947,-0c79.179,-0 200.946,-64.079 200.946,-244.258c0,-180.178 -121.767,-244.257 -200.946,-244.257l-200.947,0Z" style="fill:#232222;"/></svg>